<svg xmlns="http://www.w3.org/2000/svg" viewBox="0 0 200 200">
  <g transform="translate(100 108)">
    <ellipse cx="0" cy="8" rx="62" ry="50" fill="#f97316"/>
    <path d="M-58,-18 L-86,-58 L-44,-40 Z" fill="#f97316"/>
    <path d="M58,-18 L86,-58 L44,-40 Z" fill="#f97316"/>
    <path d="M-50,6 L-72,-20 L-44,-14 Z" fill="#fb923c"/>
    <path d="M50,6 L72,-20 L44,-14 Z" fill="#fb923c"/>
    <circle cx="-20" cy="0" r="7" fill="#1c1917"/>
    <circle cx="20" cy="0" r="7" fill="#1c1917"/>
    <ellipse cx="-20" cy="3" rx="2.5" ry="3" fill="#fff7ed"/>
    <ellipse cx="20" cy="3" rx="2.5" ry="3" fill="#fff7ed"/>
    <path d="M-12,16 Q0,28 12,16" fill="none" stroke="#1c1917" stroke-width="3" stroke-linecap="round"/>
    <circle cx="-14" cy="-26" r="5" fill="#fb923c" opacity="0.8"/>
    <circle cx="14" cy="-26" r="5" fill="#fb923c" opacity="0.8"/>
    <path d="M-22,8 L-2,8 M22,8 L2,8" stroke="#1c1917" stroke-width="2.5" stroke-linecap="round" opacity="0.25"/>
  </g>
</svg>